<svg xmlns="http://www.w3.org/2000/svg" viewBox="0 0 400 225">
  <defs>
    <linearGradient id="bg3" x1="0" y1="0" x2="1" y2="1">
      <stop offset="0" stop-color="#0f0620" />
      <stop offset="1" stop-color="#4c1d95" />
    </linearGradient>
  </defs>
  <rect width="400" height="225" fill="url(#bg3)" />
  <rect x="0" y="190" width="400" height="35" fill="#1e1035" />
  <g stroke="#a855f7" stroke-width="2" fill="none" opacity="0.9">
    <circle cx="110" cy="70" r="4" fill="#a855f7" stroke="none" />
    <path d="M110 70 L110 40 M110 70 L88 52 M110 70 L132 52 M110 70 L92 92 M110 70 L128 92" />
  </g>
  <g stroke="#7c3aed" stroke-width="2" fill="none" opacity="0.9">
    <circle cx="280" cy="55" r="4" fill="#7c3aed" stroke="none" />
    <path d="M280 55 L280 25 M280 55 L258 37 M280 55 L302 37 M280 55 L262 77 M280 55 L298 77" />
  </g>
  <g stroke="#e9e4f5" stroke-width="2" fill="none" opacity="0.7">
    <circle cx="200" cy="100" r="3" fill="#e9e4f5" stroke="none" />
    <path d="M200 100 L200 78 M200 100 L182 86 M200 100 L218 86 M200 100 L186 118 M200 100 L214 118" />
  </g>
  <rect x="170" y="170" width="60" height="20" fill="#2a1552" stroke="#7c3aed" stroke-width="2" />
</svg>
